<svg width="26" height="26" viewBox="0 0 26 26" fill="none" xmlns="http://www.w3.org/2000/svg">
<path d="M13 0.40625C6.04256 0.40625 0.40625 6.04338 0.40625 13C0.40625 19.9566 6.04338 25.5938 13 25.5938C19.9574 25.5938 25.5938 19.9566 25.5938 13C25.5938 6.04338 19.9566 0.40625 13 0.40625ZM19.1856 9.03419L17.1186 18.7744C16.9658 19.4651 16.5547 19.6324 15.9811 19.3074L12.8326 16.9869L11.3141 18.4494C11.1467 18.6168 11.0045 18.759 10.6795 18.759L10.9029 15.5545L16.7375 10.283C16.9918 10.0596 16.6814 9.93281 16.3459 10.1562L9.13494 14.6957L6.02713 13.7256C5.35194 13.5127 5.3365 13.0504 6.16931 12.7254L18.3113 8.04294C18.8752 7.83981 19.3676 8.18025 19.1847 9.03337L19.1856 9.03419Z" fill="white"/>
</svg>
