<svg width="24" height="24" viewBox="0 0 24 24" fill="none" xmlns="http://www.w3.org/2000/svg">
<path d="M21.5202 5.98012C18.1602 0.800122 11.3002 -0.739878 5.98018 2.48012C0.80018 5.70012 -0.87982 12.7001 2.48018 17.8801L2.76018 18.3001L1.64018 22.5001L5.84018 21.3801L6.26018 21.6601C8.08018 22.6401 10.0402 23.2001 12.0002 23.2001C14.1002 23.2001 16.2002 22.6401 18.0202 21.5201C23.2002 18.1601 24.7402 11.3001 21.5202 5.98012ZM18.5802 16.7601C18.0202 17.6001 17.3202 18.1601 16.3402 18.3001C15.7802 18.3001 15.0802 18.5801 12.2802 17.4601C9.90018 16.3401 7.94018 14.5201 6.54018 12.4201C5.70018 11.4401 5.28018 10.1801 5.14018 8.92012C5.14018 7.80012 5.56018 6.82012 6.26018 6.12012C6.54018 5.84012 6.82018 5.70012 7.10018 5.70012H7.80018C8.08018 5.70012 8.36018 5.70012 8.50018 6.26012C8.78018 6.96012 9.48018 8.64012 9.48018 8.78012C9.62018 8.92012 9.62018 9.20012 9.48018 9.34012C9.62018 9.62012 9.48018 9.90012 9.34018 10.0401C9.20018 10.1801 9.06018 10.4601 8.92018 10.6001C8.64018 10.7401 8.50018 11.0201 8.64018 11.3001C9.20018 12.1401 9.90018 12.9801 10.6002 13.6801C11.4402 14.3801 12.2802 14.9401 13.2602 15.3601C13.5402 15.5001 13.8202 15.5001 13.9602 15.2201C14.1002 14.9401 14.8002 14.2401 15.0802 13.9601C15.3602 13.6801 15.5002 13.6801 15.7802 13.8201L18.0202 14.9401C18.3002 15.0801 18.5802 15.2201 18.7202 15.3601C18.8602 15.7801 18.8602 16.3401 18.5802 16.7601Z" fill="white"/>
</svg>
