<svg display="none" xmlns="http://www.w3.org/2000/svg">
	<symbol viewBox="0 0 21 21" id="close">
		<g>
			<g>
				<path
					d="M0.621464 1.81621C0.543016 1.73777 0.480787 1.64463 0.438331 1.54214C0.395875 1.43964 0.374023 1.32978 0.374023 1.21884C0.374023 1.1079 0.395875 0.99804 0.438331 0.895542C0.480787 0.793044 0.543016 0.699912 0.621464 0.621464C0.699912 0.543016 0.793044 0.480787 0.895542 0.438331C0.99804 0.395875 1.1079 0.374023 1.21884 0.374023C1.32978 0.374023 1.43964 0.395875 1.54214 0.438331C1.64463 0.480787 1.73777 0.543016 1.81621 0.621464L10.5001 9.30703L19.184 0.621464C19.2624 0.543016 19.3555 0.480787 19.458 0.438331C19.5605 0.395875 19.6704 0.374023 19.7813 0.374023C19.8923 0.374023 20.0021 0.395875 20.1046 0.438331C20.2071 0.480787 20.3003 0.543016 20.3787 0.621464C20.4572 0.699912 20.5194 0.793044 20.5618 0.895542C20.6043 0.99804 20.6262 1.1079 20.6262 1.21884C20.6262 1.32978 20.6043 1.43964 20.5618 1.54214C20.5194 1.64463 20.4572 1.73777 20.3787 1.81621L11.6932 10.5001L20.3787 19.184C20.4572 19.2624 20.5194 19.3555 20.5618 19.458C20.6043 19.5605 20.6262 19.6704 20.6262 19.7813C20.6262 19.8923 20.6043 20.0021 20.5618 20.1046C20.5194 20.2071 20.4572 20.3003 20.3787 20.3787C20.3003 20.4572 20.2071 20.5194 20.1046 20.5618C20.0021 20.6043 19.8923 20.6262 19.7813 20.6262C19.6704 20.6262 19.5605 20.6043 19.458 20.5618C19.3555 20.5194 19.2624 20.4572 19.184 20.3787L10.5001 11.6932L1.81621 20.3787C1.73777 20.4572 1.64463 20.5194 1.54214 20.5618C1.43964 20.6043 1.32978 20.6262 1.21884 20.6262C1.1079 20.6262 0.99804 20.6043 0.895542 20.5618C0.793044 20.5194 0.699912 20.4572 0.621464 20.3787C0.543016 20.3003 0.480787 20.2071 0.438331 20.1046C0.395875 20.0021 0.374023 19.8923 0.374023 19.7813C0.374023 19.6704 0.395875 19.5605 0.438331 19.458C0.480787 19.3555 0.543016 19.2624 0.621464 19.184L9.30703 10.5001L0.621464 1.81621Z" />
			</g>
		</g>

	</symbol>
	<symbol viewBox="0 0 26 26" id="telegram">
		<g>
			<g>
				<path
					d="M13 0.40625C6.04256 0.40625 0.40625 6.04338 0.40625 13C0.40625 19.9566 6.04338 25.5938 13 25.5938C19.9574 25.5938 25.5938 19.9566 25.5938 13C25.5938 6.04338 19.9566 0.40625 13 0.40625ZM19.1856 9.03419L17.1186 18.7744C16.9658 19.4651 16.5547 19.6324 15.9811 19.3074L12.8326 16.9869L11.3141 18.4494C11.1467 18.6168 11.0045 18.759 10.6795 18.759L10.9029 15.5545L16.7375 10.283C16.9918 10.0596 16.6814 9.93281 16.3459 10.1562L9.13494 14.6957L6.02713 13.7256C5.35194 13.5127 5.3365 13.0504 6.16931 12.7254L18.3113 8.04294C18.8752 7.83981 19.3676 8.18025 19.1847 9.03337L19.1856 9.03419Z" />
			</g>
		</g>

	</symbol>
	<symbol viewBox="0 0 24 24" id="whatsapp">
		<g>
			<g>
				<path
					d="M21.5202 5.98012C18.1602 0.800122 11.3002 -0.739878 5.98018 2.48012C0.80018 5.70012 -0.87982 12.7001 2.48018 17.8801L2.76018 18.3001L1.64018 22.5001L5.84018 21.3801L6.26018 21.6601C8.08018 22.6401 10.0402 23.2001 12.0002 23.2001C14.1002 23.2001 16.2002 22.6401 18.0202 21.5201C23.2002 18.1601 24.7402 11.3001 21.5202 5.98012ZM18.5802 16.7601C18.0202 17.6001 17.3202 18.1601 16.3402 18.3001C15.7802 18.3001 15.0802 18.5801 12.2802 17.4601C9.90018 16.3401 7.94018 14.5201 6.54018 12.4201C5.70018 11.4401 5.28018 10.1801 5.14018 8.92012C5.14018 7.80012 5.56018 6.82012 6.26018 6.12012C6.54018 5.84012 6.82018 5.70012 7.10018 5.70012H7.80018C8.08018 5.70012 8.36018 5.70012 8.50018 6.26012C8.78018 6.96012 9.48018 8.64012 9.48018 8.78012C9.62018 8.92012 9.62018 9.20012 9.48018 9.34012C9.62018 9.62012 9.48018 9.90012 9.34018 10.0401C9.20018 10.1801 9.06018 10.4601 8.92018 10.6001C8.64018 10.7401 8.50018 11.0201 8.64018 11.3001C9.20018 12.1401 9.90018 12.9801 10.6002 13.6801C11.4402 14.3801 12.2802 14.9401 13.2602 15.3601C13.5402 15.5001 13.8202 15.5001 13.9602 15.2201C14.1002 14.9401 14.8002 14.2401 15.0802 13.9601C15.3602 13.6801 15.5002 13.6801 15.7802 13.8201L18.0202 14.9401C18.3002 15.0801 18.5802 15.2201 18.7202 15.3601C18.8602 15.7801 18.8602 16.3401 18.5802 16.7601Z" />
			</g>
		</g>

	</symbol>
	
</svg>