<svg width="21" height="21" viewBox="0 0 21 21" fill="none" xmlns="http://www.w3.org/2000/svg">
<path d="M0.621464 1.81621C0.543016 1.73777 0.480787 1.64463 0.438331 1.54214C0.395875 1.43964 0.374023 1.32978 0.374023 1.21884C0.374023 1.1079 0.395875 0.99804 0.438331 0.895542C0.480787 0.793044 0.543016 0.699912 0.621464 0.621464C0.699912 0.543016 0.793044 0.480787 0.895542 0.438331C0.99804 0.395875 1.1079 0.374023 1.21884 0.374023C1.32978 0.374023 1.43964 0.395875 1.54214 0.438331C1.64463 0.480787 1.73777 0.543016 1.81621 0.621464L10.5001 9.30703L19.184 0.621464C19.2624 0.543016 19.3555 0.480787 19.458 0.438331C19.5605 0.395875 19.6704 0.374023 19.7813 0.374023C19.8923 0.374023 20.0021 0.395875 20.1046 0.438331C20.2071 0.480787 20.3003 0.543016 20.3787 0.621464C20.4572 0.699912 20.5194 0.793044 20.5618 0.895542C20.6043 0.99804 20.6262 1.1079 20.6262 1.21884C20.6262 1.32978 20.6043 1.43964 20.5618 1.54214C20.5194 1.64463 20.4572 1.73777 20.3787 1.81621L11.6932 10.5001L20.3787 19.184C20.4572 19.2624 20.5194 19.3555 20.5618 19.458C20.6043 19.5605 20.6262 19.6704 20.6262 19.7813C20.6262 19.8923 20.6043 20.0021 20.5618 20.1046C20.5194 20.2071 20.4572 20.3003 20.3787 20.3787C20.3003 20.4572 20.2071 20.5194 20.1046 20.5618C20.0021 20.6043 19.8923 20.6262 19.7813 20.6262C19.6704 20.6262 19.5605 20.6043 19.458 20.5618C19.3555 20.5194 19.2624 20.4572 19.184 20.3787L10.5001 11.6932L1.81621 20.3787C1.73777 20.4572 1.64463 20.5194 1.54214 20.5618C1.43964 20.6043 1.32978 20.6262 1.21884 20.6262C1.1079 20.6262 0.99804 20.6043 0.895542 20.5618C0.793044 20.5194 0.699912 20.4572 0.621464 20.3787C0.543016 20.3003 0.480787 20.2071 0.438331 20.1046C0.395875 20.0021 0.374023 19.8923 0.374023 19.7813C0.374023 19.6704 0.395875 19.5605 0.438331 19.458C0.480787 19.3555 0.543016 19.2624 0.621464 19.184L9.30703 10.5001L0.621464 1.81621Z" fill="#9E2220"/>
</svg>
