<svg width="26" height="26" viewBox="0 0 26 26" fill="none" xmlns="http://www.w3.org/2000/svg">
<rect width="1440" height="6209" transform="translate(-435 -5475)" fill="white"/>
<rect x="-395" y="-347" width="1361" height="704" fill="#F8F8F8"/>
<circle cx="13" cy="13" r="12.85" fill="white" stroke="black" stroke-width="0.3"/>
<path fill-rule="evenodd" clip-rule="evenodd" d="M13 8C13.1105 8 13.2165 8.0439 13.2946 8.12204C13.3728 8.20018 13.4167 8.30616 13.4167 8.41667V12.5833H17.5833C17.6938 12.5833 17.7998 12.6272 17.878 12.7054C17.9561 12.7835 18 12.8895 18 13C18 13.1105 17.9561 13.2165 17.878 13.2946C17.7998 13.3728 17.6938 13.4167 17.5833 13.4167H13.4167V17.5833C13.4167 17.6938 13.3728 17.7998 13.2946 17.878C13.2165 17.9561 13.1105 18 13 18C12.8895 18 12.7835 17.9561 12.7054 17.878C12.6272 17.7998 12.5833 17.6938 12.5833 17.5833V13.4167H8.41667C8.30616 13.4167 8.20018 13.3728 8.12204 13.2946C8.0439 13.2165 8 13.1105 8 13C8 12.8895 8.0439 12.7835 8.12204 12.7054C8.20018 12.6272 8.30616 12.5833 8.41667 12.5833H12.5833V8.41667C12.5833 8.30616 12.6272 8.20018 12.7054 8.12204C12.7835 8.0439 12.8895 8 13 8V8Z" fill="black"/>
</svg>
